PathFileType	4	(X/Y/Z)	./resultDataOpenSim/trcMotMarkerGrf/sub06/qtm-01-02.trc
DataRate	CameraRate	NumFrames	NumMarkers	Units	OrigDataRate	OrigDataStartFrame	OrigNumFrames
250.000000	250.000000	12	24	m	250.000000	442	504
Frame#	Time	L.Toe.Tip			R.Toe.Tip			L.Ankle.Lat			R.Ankle.Lat			L.Ankle.Med			R.Ankle.Med			L.Heel			R.Heel			L.Knee.Lat			R.Knee.Lat			L.Knee.Med			R.Knee.Med			L.Thigh.Upper			R.Thigh.Upper			L.ASIS			R.ASIS			V.Sacral			L.Acromium			R.Acromium			C7			L.Elbow			R.Elbow			L.Wrist.Lat			R.Wrist.Lat
		X1	Y1	Z1	X2	Y2	Z2	X3	Y3	Z3	X4	Y4	Z4	X5	Y5	Z5	X6	Y6	Z6	X7	Y7	Z7	X8	Y8	Z8	X9	Y9	Z9	X10	Y10	Z10	X11	Y11	Z11	X12	Y12	Z12	X13	Y13	Z13	X14	Y14	Z14	X15	Y15	Z15	X16	Y16	Z16	X17	Y17	Z17	X18	Y18	Z18	X19	Y19	Z19	X20	Y20	Z20	X21	Y21	Z21	X22	Y22	Z22	X23	Y23	Z23	X24	Y24	Z24

442	1.764	1.6264112	0.033378483	-0.024427891	1.1734124	0.073364952	0.15498675	1.5027017	0.066512777	-0.049147044	1.1407128	0.21050022	0.17150945	1.5033861	0.080360861	0.037563778	1.1840442	0.20067215	0.093897682	1.4256793	0.040203604	-0.0072255406	1.1096346	0.24432698	0.10360162	1.5802627	0.43291506	-0.067665779	1.4627198	0.41328577	0.21175593	1.5480287	0.43154873	0.04961042	1.4655434	0.38984999	0.079492606	1.4604996	0.81068187	-0.14286671	1.4193501	0.76332187	0.18400398	1.5178501	0.85256279	-0.085552069	1.4882008	0.83646592	0.1608723	1.3114073	0.91339334	0.021712254	1.4202819	1.3193516	-0.16186388	1.4014524	1.3145365	0.20032328	1.3340232	1.3557339	0.014774362	1.3556956	1.0099006	-0.2139791	1.3738918	0.99460096	0.27719728	1.4742555	0.79912016	-0.25111834	1.5831342	0.86420037	0.27939143
443	1.768	1.6263893	0.03339363	-0.024432722	1.1913496	0.073034601	0.15648079	1.5026712	0.066589725	-0.049210321	1.15538	0.20908687	0.17176262	1.5033623	0.080476074	0.037574166	1.1987867	0.19964538	0.094487699	1.4256364	0.040293089	-0.0073397419	1.1230347	0.24179204	0.10327259	1.5818595	0.43279083	-0.067442395	1.4747156	0.41609296	0.21148737	1.5488241	0.4315155	0.049704322	1.4776263	0.39239893	0.079134979	1.4651227	0.81151217	-0.14297786	1.425812	0.7655178	0.18409453	1.5235164	0.85394522	-0.086139315	1.4941979	0.83863607	0.16066402	1.3172423	0.91493472	0.021294346	1.4263485	1.3213625	-0.1616908	1.4071326	1.3163216	0.20040635	1.3399728	1.3574363	0.014823619	1.3637844	1.011192	-0.21436282	1.3774857	0.99647206	0.27624716	1.4854933	0.80193977	-0.25051666	1.5844193	0.86276896	0.27998012
444	1.772	1.626378	0.033407345	-0.024435054	1.209478	0.072669829	0.15792298	1.5026467	0.066665258	-0.049221147	1.170448	0.20735861	0.1721048	1.5033691	0.080603297	0.037587071	1.2135069	0.19850512	0.09489558	1.425624	0.040406045	-0.007376148	1.1363612	0.23896757	0.10327115	1.5834021	0.43269192	-0.067194231	1.4866972	0.41891505	0.21120056	1.5495513	0.43149813	0.049832492	1.4893251	0.39512671	0.078706644	1.4696046	0.81233684	-0.14304516	1.432125	0.76775746	0.18426738	1.5291233	0.85535327	-0.086717728	1.500203	0.84078888	0.16040427	1.3232248	0.91643325	0.021138453	1.432406	1.3233917	-0.1615146	1.4128638	1.3180861	0.20047616	1.3459171	1.359126	0.01489381	1.3718718	1.0125085	-0.21473246	1.381204	0.99839664	0.27529237	1.4967613	0.80481777	-0.24988935	1.5856196	0.86140898	0.28058024
445	1.776	1.6263745	0.033417975	-0.024439373	1.2277718	0.07226693	0.15929652	1.5026331	0.066746474	-0.049200621	1.1856864	0.20538606	0.17247093	1.5034373	0.080742693	0.037594943	1.2280363	0.19729223	0.094894847	1.4256406	0.040545358	-0.007308483	1.1494599	0.23582188	0.10386014	1.5848106	0.43260629	-0.066938406	1.4982849	0.42169492	0.21081035	1.5502452	0.43149305	0.049993935	1.5006576	0.39802296	0.078221883	1.4740103	0.81317936	-0.14309337	1.4382953	0.77003571	0.18451976	1.5345188	0.85677064	-0.08726012	1.5061542	0.84293435	0.16007394	1.3292408	0.91796141	0.021307646	1.4384517	1.3254334	-0.16132951	1.4186384	1.319821	0.20053728	1.3518473	1.3607906	0.014990612	1.379955	1.0138511	-0.21508186	1.3849156	1.0003672	0.27434111	1.5080594	0.8077459	-0.24924251	1.5867441	0.86011629	0.28118534
446	1.78	1.626372	0.033425319	-0.024448149	1.2461743	0.071815737	0.16058325	1.5026271	0.066832646	-0.049170086	1.2008097	0.20327386	0.17276807	1.5035923	0.080897798	0.037589459	1.2423958	0.19598418	0.09453997	1.4256639	0.04069641	-0.0071862036	1.1623494	0.2323782	0.10497834	1.5860711	0.43252752	-0.066688624	1.5093839	0.42441761	0.2103002	1.5509771	0.43150012	0.05018267	1.5118434	0.40105215	0.077690563	1.4785315	0.81406765	-0.14315082	1.4443329	0.77234583	0.18484816	1.5397046	0.85819734	-0.087767727	1.5120107	0.84507981	0.15965935	1.3351719	0.91955262	0.021647404	1.4444754	1.3274672	-0.16112759	1.4244479	1.3215152	0.20059669	1.357756	1.3624189	0.015118408	1.3880192	1.0152089	-0.21541353	1.3884508	1.0023564	0.27339983	1.5193767	0.81073218	-0.24856309	1.5877979	0.85888393	0.28179419
447	1.784	1.6263663	0.033429595	-0.024461842	1.2646418	0.071312425	0.16176048	1.5026229	0.066919787	-0.049140017	1.2157587	0.20106391	0.17296956	1.5037808	0.081064285	0.037573649	1.2567642	0.1945205	0.094099044	1.4256759	0.040845118	-0.0070666086	1.1753519	0.22874057	0.10605629	1.5872263	0.43245356	-0.066452971	1.5202851	0.42711895	0.20974733	1.5518173	0.43152269	0.050390584	1.5231749	0.40418742	0.077133014	1.4832972	0.81501096	-0.14322245	1.4502507	0.77468001	0.18524816	1.5448312	0.85964127	-0.088263803	1.5177505	0.84722537	0.15915652	1.3409918	0.92116722	0.021945174	1.450473	1.3294676	-0.16090645	1.4302767	1.3231669	0.20065939	1.3636395	1.364004	0.015267512	1.3960522	1.0165643	-0.2157384	1.3916861	1.0043305	0.27246952	1.5307301	0.81378968	-0.2478252	1.5887838	0.85770783	0.28240928
448	1.788	1.6263583	0.033431428	-0.024480885	1.2831979	0.070762632	0.16282453	1.502616	0.067008377	-0.049111814	1.2306501	0.19874338	0.17311631	1.5037285	0.081209472	0.037582492	1.2713051	0.19286462	0.093792944	1.4256767	0.040988852	-0.0069632169	1.1889205	0.22502698	0.10638225	1.5883204	0.43238182	-0.066233871	1.5312784	0.42983121	0.20923336	1.5527094	0.4315487	0.050600739	1.5346699	0.4074348	0.07657667	1.4882471	0.81598997	-0.14327787	1.456062	0.77703016	0.185715	1.5500178	0.86110094	-0.08876081	1.5233888	0.849364	0.15857496	1.3467532	0.92273902	0.02208772	1.4564522	1.3314242	-0.16066916	1.4361084	1.3247808	0.20072359	1.369497	1.3655375	0.015418645	1.4040557	1.0179072	-0.21607043	1.3946677	1.0062547	0.27155782	1.5421788	0.81692191	-0.24700974	1.5897063	0.85658818	0.28303195
449	1.792	1.6263521	0.033432757	-0.024506592	1.3019122	0.070172269	0.16380152	1.5026035	0.067105373	-0.049083995	1.2455897	0.19630065	0.17325839	1.5029178	0.081269217	0.037689288	1.2860726	0.19102215	0.093669937	1.4256772	0.041134097	-0.0068662448	1.2032098	0.22126171	0.10580348	1.5893696	0.43231148	-0.066030591	1.542378	0.43254206	0.20875537	1.5535675	0.43156946	0.050797269	1.5460755	0.41078637	0.076033152	1.4933125	0.81696957	-0.14326423	1.4617802	0.77938822	0.18624392	1.5552677	0.86256295	-0.08925236	1.5290538	0.85148078	0.15795531	1.3525295	0.92423822	0.02207649	1.4624222	1.3333408	-0.16042227	1.4419343	1.3263551	0.20078105	1.3753285	1.367013	0.015558106	1.4120373	1.0192401	-0.2164133	1.3977156	1.008094	0.27069512	1.553724	0.82012304	-0.24612206	1.5905712	0.85552477	0.2836615
450	1.796	1.6263518	0.033436671	-0.024539754	1.3207596	0.06952523	0.16471308	1.5025852	0.067219887	-0.049054783	1.2606244	0.19373317	0.17341793	1.5010711	0.081208206	0.037943093	1.3010333	0.18902106	0.093652556	1.4256872	0.041291539	-0.006774708	1.217912	0.21736516	0.10486249	1.5903659	0.43224751	-0.065841314	1.5534395	0.43521964	0.20824549	1.5544463	0.43161511	0.050975531	1.5572907	0.4142017	0.075473563	1.4985578	0.81791117	-0.14313141	1.4674181	0.78174612	0.18683035	1.5605384	0.86401278	-0.089731357	1.5349192	0.853562	0.15734998	1.358355	0.92567929	0.021991637	1.4683847	1.3352203	-0.16017622	1.4477528	1.3278798	0.2008238	1.3811365	1.3684362	0.015683781	1.4200011	1.0205641	-0.21676197	1.401224	1.0098409	0.26991677	1.5651963	0.82338474	-0.2452004	1.5913879	0.85451485	0.28429604
451	1.8	1.6263592	0.033444229	-0.024578892	1.3396134	0.068786746	0.1655534	1.502565	0.067355631	-0.049023333	1.275769	0.19103373	0.17358516	1.4988113	0.081102766	0.038273168	1.3161274	0.18689627	0.09362887	1.4257063	0.041474185	-0.0066935353	1.2326088	0.2132456	0.10420662	1.5913011	0.43219758	-0.06566266	1.5643718	0.43785745	0.20766484	1.5555168	0.43175359	0.051139105	1.5684881	0.41766164	0.074831986	1.5039535	0.8188028	-0.14290947	1.4729884	0.78409577	0.18746983	1.5658099	0.86543985	-0.090198509	1.5410277	0.85560775	0.15677521	1.3641883	0.9270805	0.021957496	1.4743379	1.337057	-0.15994253	1.4535718	1.3293433	0.2008503	1.3869308	1.3698188	0.015799964	1.4279513	1.0218709	-0.21711964	1.4052278	1.01156	0.26922063	1.5763921	0.82670016	-0.24428563	1.5921674	0.85355316	0.28493369
452	1.804	1.6263726	0.033452258	-0.024620429	1.3585067	0.067960457	0.16632093	1.5025495	0.067506286	-0.048990621	1.2910318	0.18819076	0.17373865	1.4972422	0.081091019	0.038532031	1.3313142	0.18467374	0.093532323	1.4257293	0.041689497	-0.00661767	1.2471806	0.2088762	0.10404841	1.5921823	0.43216398	-0.065492324	1.5751707	0.44046948	0.20703158	1.5568381	0.43202869	0.051300511	1.579654	0.4211679	0.074115613	1.5091751	0.81968732	-0.14275829	1.4785042	0.78642903	0.18815772	1.5710837	0.86683236	-0.090655723	1.547293	0.85762533	0.1562127	1.3699691	0.92843823	0.022083211	1.4802816	1.3388398	-0.15972457	1.4594097	1.3307379	0.20086931	1.3927267	1.3711637	0.015910325	1.4358941	1.0231506	-0.2174942	1.4092772	1.0133512	0.26855383	1.5873428	0.83006116	-0.24337123	1.5929186	0.8526316	0.28557999
453	1.808	1.62639	0.033456421	-0.024660325	1.3777009	0.067111549	0.167037	1.5025416	0.067660204	-0.048957685	1.3064236	0.18519492	0.17386863	1.4967647	0.081222258	0.038651866	1.3465925	0.18234885	0.093397096	1.4257569	0.041927575	-0.0065343175	1.2617843	0.20428964	0.1042062	1.5930232	0.43213959	-0.065333793	1.5858589	0.44305887	0.20637398	1.5580848	0.43237766	0.051490519	1.5902659	0.42467849	0.073500877	1.5139724	0.82060234	-0.14279289	1.4839787	0.78873789	0.18888905	1.5763606	0.86817632	-0.091100074	1.5536214	0.85961486	0.15564381	1.375712	0.92973876	0.02240568	1.4862187	1.3405588	-0.15951285	1.4652891	1.3320646	0.20090603	1.3985343	1.3724677	0.016013991	1.443827	1.0243975	-0.21788345	1.4128157	1.015236	0.2678457	1.5982638	0.83344859	-0.24241589	1.5936514	0.85174221	0.28625841
